<svg id="Layer_1" data-name="Layer 1" xmlns="http://www.w3.org/2000/svg" viewBox="0 0 436.74 48" width="436"><title>Vector Smart Object</title><polygon points="53.39 9.56 53.39 11.29 43.91 1.74 34.73 11.01 25.56 1.74 16.38 11.01 7.31 1.83 -1.67 11.29 -1.67 9.56 7.26 0.09 16.41 9.27 25.56 0 34.73 9.27 43.91 0 53.39 9.56"/><polygon points="53.39 18.73 53.39 20.47 43.91 10.91 34.73 20.18 25.56 10.91 16.38 20.18 7.31 11.01 -1.67 20.47 -1.67 18.73 7.26 9.27 16.41 18.45 25.56 9.18 34.73 18.45 43.91 9.18 53.39 18.73"/><polygon points="53.39 27.91 53.39 29.65 43.91 20.09 34.73 29.36 25.56 20.09 16.38 29.36 7.31 20.18 -1.67 29.65 -1.67 27.91 7.26 18.45 16.41 27.62 25.56 18.35 34.73 27.62 43.91 18.35 53.39 27.91"/><polygon points="53.39 37.09 53.39 38.82 43.91 29.27 34.73 38.54 25.56 29.27 16.38 38.54 7.31 29.36 -1.67 38.82 -1.67 37.09 7.26 27.62 16.41 36.8 25.56 27.53 34.73 36.8 43.91 27.53 53.39 37.09"/><polygon points="53.39 46.26 53.39 48 43.91 38.44 34.73 47.71 25.56 38.44 16.38 47.71 7.31 38.54 -1.67 48 -1.67 46.26 7.26 36.8 16.41 45.98 25.56 36.71 34.73 45.98 43.91 36.71 53.39 46.26"/><polygon points="108.43 9.56 108.43 11.29 98.95 1.74 89.77 11.01 80.59 1.74 71.42 11.01 62.35 1.83 53.37 11.29 53.37 9.56 62.3 0.09 71.45 9.27 80.6 0 89.77 9.27 98.95 0 108.43 9.56"/><polygon points="108.43 18.73 108.43 20.47 98.95 10.91 89.77 20.18 80.59 10.91 71.42 20.18 62.35 11.01 53.37 20.47 53.37 18.73 62.3 9.27 71.45 18.45 80.6 9.18 89.77 18.45 98.95 9.18 108.43 18.73"/><polygon points="108.43 27.91 108.43 29.65 98.95 20.09 89.77 29.36 80.59 20.09 71.42 29.36 62.35 20.18 53.37 29.65 53.37 27.91 62.3 18.45 71.45 27.62 80.6 18.35 89.77 27.62 98.95 18.35 108.43 27.91"/><polygon points="108.43 37.09 108.43 38.82 98.95 29.27 89.77 38.54 80.59 29.27 71.42 38.54 62.35 29.36 53.37 38.82 53.37 37.09 62.3 27.62 71.45 36.8 80.6 27.53 89.77 36.8 98.95 27.53 108.43 37.09"/><polygon points="108.43 46.26 108.43 48 98.95 38.44 89.77 47.71 80.59 38.44 71.42 47.71 62.35 38.54 53.37 48 53.37 46.26 62.3 36.8 71.45 45.98 80.6 36.71 89.77 45.98 98.95 36.71 108.43 46.26"/><polygon points="163.47 9.56 163.47 11.29 153.98 1.74 144.81 11.01 135.63 1.74 126.45 11.01 117.39 1.83 108.41 11.29 108.41 9.56 117.33 0.09 126.48 9.27 135.63 0 144.81 9.27 153.98 0 163.47 9.56"/><polygon points="163.47 18.73 163.47 20.47 153.98 10.91 144.81 20.18 135.63 10.91 126.45 20.18 117.39 11.01 108.41 20.47 108.41 18.73 117.33 9.27 126.48 18.45 135.63 9.18 144.81 18.45 153.98 9.18 163.47 18.73"/><polygon points="163.47 27.91 163.47 29.65 153.98 20.09 144.81 29.36 135.63 20.09 126.45 29.36 117.39 20.18 108.41 29.65 108.41 27.91 117.33 18.45 126.48 27.62 135.63 18.35 144.81 27.62 153.98 18.35 163.47 27.91"/><polygon points="163.47 37.09 163.47 38.82 153.98 29.27 144.81 38.54 135.63 29.27 126.45 38.54 117.39 29.36 108.41 38.82 108.41 37.09 117.33 27.62 126.48 36.8 135.63 27.53 144.81 36.8 153.98 27.53 163.47 37.09"/><polygon points="163.47 46.26 163.47 48 153.98 38.44 144.81 47.71 135.63 38.44 126.45 47.71 117.39 38.54 108.41 48 108.41 46.26 117.33 36.8 126.48 45.98 135.63 36.71 144.81 45.98 153.98 36.71 163.47 46.26"/><polygon points="218.5 9.56 218.5 11.29 209.02 1.74 199.84 11.01 190.66 1.74 181.49 11.01 172.42 1.83 163.44 11.29 163.44 9.56 172.37 0.09 181.52 9.27 190.67 0 199.84 9.27 209.02 0 218.5 9.56"/><polygon points="218.5 18.73 218.5 20.47 209.02 10.91 199.84 20.18 190.66 10.91 181.49 20.18 172.42 11.01 163.44 20.47 163.44 18.73 172.37 9.27 181.52 18.45 190.67 9.18 199.84 18.45 209.02 9.18 218.5 18.73"/><polygon points="218.5 27.91 218.5 29.65 209.02 20.09 199.84 29.36 190.66 20.09 181.49 29.36 172.42 20.18 163.44 29.65 163.44 27.91 172.37 18.45 181.52 27.62 190.67 18.35 199.84 27.62 209.02 18.35 218.5 27.91"/><polygon points="218.5 37.09 218.5 38.82 209.02 29.27 199.84 38.54 190.66 29.27 181.49 38.54 172.42 29.36 163.44 38.82 163.44 37.09 172.37 27.62 181.52 36.8 190.67 27.53 199.84 36.8 209.02 27.53 218.5 37.09"/><polygon points="218.5 46.26 218.5 48 209.02 38.44 199.84 47.71 190.66 38.44 181.49 47.71 172.42 38.54 163.44 48 163.44 46.26 172.37 36.8 181.52 45.98 190.67 36.71 199.84 45.98 209.02 36.71 218.5 46.26"/><polygon points="273.63 9.56 273.63 11.29 264.15 1.74 254.97 11.01 245.8 1.74 236.62 11.01 227.55 1.83 218.57 11.29 218.57 9.56 227.5 0.09 236.65 9.27 245.8 0 254.97 9.27 264.15 0 273.63 9.56"/><polygon points="273.63 18.73 273.63 20.47 264.15 10.91 254.97 20.18 245.8 10.91 236.62 20.18 227.55 11.01 218.57 20.47 218.57 18.73 227.5 9.27 236.65 18.45 245.8 9.18 254.97 18.45 264.15 9.18 273.63 18.73"/><polygon points="273.63 27.91 273.63 29.65 264.15 20.09 254.97 29.36 245.8 20.09 236.62 29.36 227.55 20.18 218.57 29.65 218.57 27.91 227.5 18.45 236.65 27.62 245.8 18.35 254.97 27.62 264.15 18.35 273.63 27.91"/><polygon points="273.63 37.09 273.63 38.82 264.15 29.27 254.97 38.54 245.8 29.27 236.62 38.54 227.55 29.36 218.57 38.82 218.57 37.09 227.5 27.62 236.65 36.8 245.8 27.53 254.97 36.8 264.15 27.53 273.63 37.09"/><polygon points="273.63 46.26 273.63 48 264.15 38.44 254.97 47.71 245.8 38.44 236.62 47.71 227.55 38.54 218.57 48 218.57 46.26 227.5 36.8 236.65 45.98 245.8 36.71 254.97 45.98 264.15 36.71 273.63 46.26"/><polygon points="328.67 9.56 328.67 11.29 319.19 1.74 310.01 11.01 300.83 1.74 291.66 11.01 282.59 1.83 273.61 11.29 273.61 9.56 282.53 0.09 291.69 9.27 300.84 0 310.01 9.27 319.19 0 328.67 9.56"/><polygon points="328.67 18.73 328.67 20.47 319.19 10.91 310.01 20.18 300.83 10.91 291.66 20.18 282.59 11.01 273.61 20.47 273.61 18.73 282.53 9.27 291.69 18.45 300.84 9.18 310.01 18.45 319.19 9.18 328.67 18.73"/><polygon points="328.67 27.91 328.67 29.65 319.19 20.09 310.01 29.36 300.83 20.09 291.66 29.36 282.59 20.18 273.61 29.65 273.61 27.91 282.53 18.45 291.69 27.62 300.84 18.35 310.01 27.62 319.19 18.35 328.67 27.91"/><polygon points="328.67 37.09 328.67 38.82 319.19 29.27 310.01 38.54 300.83 29.27 291.66 38.54 282.59 29.36 273.61 38.82 273.61 37.09 282.53 27.62 291.69 36.8 300.84 27.53 310.01 36.8 319.19 27.53 328.67 37.09"/><polygon points="328.67 46.26 328.67 48 319.19 38.44 310.01 47.71 300.83 38.44 291.66 47.71 282.59 38.54 273.61 48 273.61 46.26 282.53 36.8 291.69 45.98 300.84 36.71 310.01 45.98 319.19 36.71 328.67 46.26"/><polygon points="383.7 9.56 383.7 11.29 374.22 1.74 365.05 11.01 355.87 1.74 346.69 11.01 337.63 1.83 328.64 11.29 328.64 9.56 337.57 0.09 346.72 9.27 355.88 0 365.05 9.27 374.22 0 383.7 9.56"/><polygon points="383.7 18.73 383.7 20.47 374.22 10.91 365.05 20.18 355.87 10.91 346.69 20.18 337.63 11.01 328.64 20.47 328.64 18.73 337.57 9.27 346.72 18.45 355.88 9.18 365.05 18.45 374.22 9.18 383.7 18.73"/><polygon points="383.7 27.91 383.7 29.65 374.22 20.09 365.05 29.36 355.87 20.09 346.69 29.36 337.63 20.18 328.64 29.65 328.64 27.91 337.57 18.45 346.72 27.62 355.88 18.35 365.05 27.62 374.22 18.35 383.7 27.91"/><polygon points="383.7 37.09 383.7 38.82 374.22 29.27 365.05 38.54 355.87 29.27 346.69 38.54 337.63 29.36 328.64 38.82 328.64 37.09 337.57 27.62 346.72 36.8 355.88 27.53 365.05 36.8 374.22 27.53 383.7 37.09"/><polygon points="383.7 46.26 383.7 48 374.22 38.44 365.05 47.71 355.87 38.44 346.69 47.71 337.63 38.54 328.64 48 328.64 46.26 337.57 36.8 346.72 45.98 355.88 36.71 365.05 45.98 374.22 36.71 383.7 46.26"/><polygon points="438.74 9.56 438.74 11.29 429.26 1.74 420.08 11.01 410.9 1.74 401.73 11.01 392.66 1.83 383.68 11.29 383.68 9.56 392.61 0.09 401.76 9.27 410.91 0 420.08 9.27 429.26 0 438.74 9.56"/><polygon points="438.74 18.73 438.74 20.47 429.26 10.91 420.08 20.18 410.9 10.91 401.73 20.18 392.66 11.01 383.68 20.47 383.68 18.73 392.61 9.27 401.76 18.45 410.91 9.18 420.08 18.45 429.26 9.18 438.74 18.73"/><polygon points="438.74 27.91 438.74 29.65 429.26 20.09 420.08 29.36 410.9 20.09 401.73 29.36 392.66 20.18 383.68 29.65 383.68 27.91 392.61 18.45 401.76 27.62 410.91 18.35 420.08 27.62 429.26 18.35 438.74 27.91"/><polygon points="438.74 37.09 438.74 38.82 429.26 29.27 420.08 38.54 410.9 29.27 401.73 38.54 392.66 29.36 383.68 38.82 383.68 37.09 392.61 27.62 401.76 36.8 410.91 27.53 420.08 36.8 429.26 27.53 438.74 37.09"/><polygon points="438.74 46.26 438.74 48 429.26 38.44 420.08 47.71 410.9 38.44 401.73 47.71 392.66 38.54 383.68 48 383.68 46.26 392.61 36.8 401.76 45.98 410.91 36.71 420.08 45.98 429.26 36.71 438.74 46.26"/></svg>