<svg id="Layer_1" data-name="Layer 1" xmlns="http://www.w3.org/2000/svg" viewBox="0 0 689.65 18.46" width="689"><defs><style>.cls-1{fill:#FFFFFF;}</style></defs><title>Vector Smart Object1</title><polygon class="cls-1" points="75.21 15.62 75.21 18.46 59.71 2.84 44.71 17.99 29.71 2.84 14.71 17.99 -0.11 2.99 -14.79 18.46 -14.79 15.62 -0.2 0.15 14.76 15.15 29.72 0 44.71 15.15 59.71 0 75.21 15.62"/><polygon class="cls-1" points="165.18 15.62 165.18 18.46 149.68 2.84 134.68 17.99 119.67 2.84 104.67 17.99 89.86 2.99 75.17 18.46 75.17 15.62 89.77 0.15 104.72 15.15 119.69 0 134.68 15.15 149.68 0 165.18 15.62"/><polygon class="cls-1" points="255.13 15.62 255.13 18.46 239.63 2.84 224.63 17.99 209.63 2.84 194.63 17.99 179.81 2.99 165.13 18.46 165.13 15.62 179.72 0.15 194.69 15.15 209.65 0 224.63 15.15 239.63 0 255.13 15.62"/><polygon class="cls-1" points="345.1 15.62 345.1 18.46 329.6 2.84 314.6 17.99 299.6 2.84 284.6 17.99 269.78 2.99 255.1 18.46 255.1 15.62 269.69 0.15 284.65 15.15 299.61 0 314.6 15.15 329.6 0 345.1 15.62"/><polygon class="cls-1" points="435.21 15.62 435.21 18.46 419.71 2.84 404.71 17.99 389.71 2.84 374.71 17.99 359.89 2.99 345.21 18.46 345.21 15.62 359.8 0.15 374.76 15.15 389.72 0 404.71 15.15 419.71 0 435.21 15.62"/><polygon class="cls-1" points="525.17 15.62 525.17 18.46 509.68 2.84 494.68 17.99 479.68 2.84 464.68 17.99 449.86 2.99 435.18 18.46 435.18 15.62 449.76 0.15 464.73 15.15 479.69 0 494.68 15.15 509.68 0 525.17 15.62"/><polygon class="cls-1" points="615.13 15.62 615.13 18.46 599.63 2.84 584.63 17.99 569.63 2.84 554.63 17.99 539.82 2.99 525.13 18.46 525.13 15.62 539.73 0.15 554.68 15.15 569.64 0 584.63 15.15 599.63 0 615.13 15.62"/><polygon class="cls-1" points="705.1 15.62 705.1 18.46 689.6 2.84 674.6 17.99 659.6 2.84 644.6 17.99 629.78 2.99 615.1 18.46 615.1 15.62 629.69 0.15 644.65 15.15 659.61 0 674.6 15.15 689.6 0 705.1 15.62"/></svg>